<svg width="787" height="257" viewBox="0 0 787 257" fill="none" xmlns="http://www.w3.org/2000/svg">
<path d="M57.2575 159.896C51.6684 163.422 46.1615 161.365 44.1066 159.896C24.7093 142.27 7.12001 122.001 0.544589 114.069C-0.441723 108.429 0.133639 104.669 0.544602 103.494C26.5175 70.3576 42.1889 56.7858 46.9834 54.1419C49.6136 53.7894 52.463 53.995 53.5588 54.1419C60.5453 55.4639 63.8329 59.8703 67.5316 65.5986C70.4906 70.1813 69.8604 76.3208 69.1755 78.8178C57.6685 90.4508 51.0931 99.528 49.0383 102.613C47.8054 108.341 49.0383 112.307 49.0383 112.747C49.0383 113.1 60.6822 127.435 66.7097 134.339C73.9427 145.267 63.4219 155.93 57.2575 159.896Z" fill="white"/>
<path d="M132.357 106.126H194.235L107.606 14.1504H49.4414L132.357 102.589V106.126Z" fill="white"/>
<path d="M132.253 112.347L52.0898 201.641H108.287H108.7L194.235 106.127H132.253V112.347Z" fill="white"/>
<path d="M268.608 155.116C260.133 155.116 252.24 153.737 244.929 150.978C237.724 148.113 231.421 144.133 226.017 139.039C220.721 133.838 216.589 127.736 213.622 120.732C210.656 113.727 209.173 106.086 209.173 97.8086C209.173 89.5307 210.656 81.8896 213.622 74.8852C216.589 67.8809 220.774 61.8317 226.177 56.7377C231.581 51.5375 237.884 47.5576 245.088 44.7985C252.293 41.933 260.186 40.5003 268.768 40.5003C277.878 40.5003 286.195 42.0923 293.717 45.2761C301.24 48.3537 307.596 52.9701 312.788 59.1255L299.438 71.7015C295.413 67.3503 290.91 64.1135 285.93 61.9909C280.95 59.7623 275.548 58.6479 269.721 58.6479C263.894 58.6479 258.543 59.6031 253.67 61.5133C248.902 63.4237 244.717 66.1298 241.115 69.6321C237.62 73.1342 234.864 77.273 232.851 82.0486C230.944 86.8243 229.99 92.0777 229.99 97.8086C229.99 103.539 230.944 108.793 232.851 113.568C234.864 118.344 237.62 122.483 241.115 125.985C244.717 129.487 248.902 132.193 253.67 134.104C258.543 136.014 263.894 136.969 269.721 136.969C275.548 136.969 280.95 135.908 285.93 133.785C290.91 131.557 295.413 128.214 299.438 123.756L312.788 136.492C307.596 142.541 301.24 147.157 293.717 150.341C286.195 153.525 277.826 155.116 268.608 155.116ZM365.558 154.639C356.87 154.639 349.136 152.782 342.356 149.068C335.576 145.247 330.225 140.047 326.305 133.467C322.385 126.887 320.425 119.405 320.425 111.021C320.425 102.531 322.385 95.0493 326.305 88.5756C330.225 81.9957 335.576 76.8486 342.356 73.1342C349.136 69.4198 356.87 67.5625 365.558 67.5625C374.351 67.5625 382.138 69.4198 388.918 73.1342C395.805 76.8486 401.156 81.9425 404.97 88.4162C408.89 94.8899 410.85 102.425 410.85 111.021C410.85 119.405 408.89 126.887 404.97 133.467C401.156 140.047 395.805 145.247 388.918 149.068C382.138 152.782 374.351 154.639 365.558 154.639ZM365.558 137.606C370.431 137.606 374.776 136.545 378.589 134.422C382.403 132.3 385.37 129.222 387.489 125.189C389.713 121.156 390.825 116.434 390.825 111.021C390.825 105.503 389.713 100.78 387.489 96.8533C385.37 92.8205 382.403 89.7429 378.589 87.6203C374.776 85.4979 370.484 84.4366 365.717 84.4366C360.843 84.4366 356.499 85.4979 352.685 87.6203C348.977 89.7429 346.011 92.8205 343.785 96.8533C341.56 100.78 340.449 105.503 340.449 111.021C340.449 116.434 341.56 121.156 343.785 125.189C346.011 129.222 348.977 132.3 352.685 134.422C356.499 136.545 360.79 137.606 365.558 137.606ZM477.998 67.5625C484.779 67.5625 490.816 68.889 496.114 71.5422C501.518 74.1953 505.755 78.2811 508.828 83.7997C511.9 89.2122 513.436 96.2166 513.436 104.813V153.525H493.572V107.36C493.572 99.8248 491.77 94.2002 488.168 90.4858C484.673 86.7714 479.746 84.9142 473.389 84.9142C468.727 84.9142 464.595 85.8693 460.993 87.7796C457.392 89.6898 454.583 92.5552 452.57 96.3758C450.663 100.09 449.709 104.813 449.709 110.544V153.525H429.846V68.5177H448.756V91.4409L445.42 84.4366C448.386 79.0242 452.676 74.8851 458.292 72.0197C464.013 69.0483 470.581 67.5625 477.998 67.5625ZM538.636 153.525V35.4062H558.501V153.525H538.636ZM622.714 154.639C614.027 154.639 606.293 152.782 599.512 149.068C592.732 145.247 587.381 140.047 583.461 133.467C579.541 126.887 577.581 119.405 577.581 111.021C577.581 102.531 579.541 95.0493 583.461 88.5756C587.381 81.9957 592.732 76.8486 599.512 73.1342C606.293 69.4198 614.027 67.5625 622.714 67.5625C631.508 67.5625 639.294 69.4198 646.075 73.1342C652.961 76.8486 658.312 81.9425 662.126 88.4162C666.046 94.8899 668.006 102.425 668.006 111.021C668.006 119.405 666.046 126.887 662.126 133.467C658.312 140.047 652.961 145.247 646.075 149.068C639.294 152.782 631.508 154.639 622.714 154.639ZM622.714 137.606C627.588 137.606 631.932 136.545 635.746 134.422C639.56 132.3 642.526 129.222 644.645 125.189C646.871 121.156 647.982 116.434 647.982 111.021C647.982 105.503 646.871 100.78 644.645 96.8533C642.526 92.8205 639.56 89.7429 635.746 87.6203C631.932 85.4979 627.641 84.4366 622.873 84.4366C618 84.4366 613.655 85.4979 609.841 87.6203C606.134 89.7429 603.167 92.8205 600.942 96.8533C598.718 100.78 597.605 105.503 597.605 111.021C597.605 116.434 598.718 121.156 600.942 125.189C603.167 129.222 606.134 132.3 609.841 134.422C613.655 136.545 617.947 137.606 622.714 137.606ZM722.917 154.639C714.76 154.639 707.396 152.835 700.828 149.226C694.365 145.618 689.28 140.577 685.571 134.104C681.863 127.524 680.009 119.83 680.009 111.021C680.009 102.213 681.863 94.5717 685.571 88.0979C689.28 81.6242 694.365 76.5832 700.828 72.9748C707.396 69.3665 714.76 67.5625 722.917 67.5625C730.228 67.5625 736.637 69.1544 742.147 72.3382C747.762 75.4159 752.158 80.1386 755.337 86.5061C758.622 92.8737 760.263 101.046 760.263 111.021C760.263 120.891 758.569 129.063 755.178 135.536C751.894 141.904 747.444 146.68 741.829 149.864C736.214 153.047 729.91 154.639 722.917 154.639ZM725.142 137.606C729.91 137.606 734.201 136.545 738.015 134.422C741.829 132.3 744.849 129.222 747.074 125.189C749.298 121.156 750.41 116.434 750.41 111.021C750.41 105.503 749.298 100.78 747.074 96.8533C744.849 92.8205 741.829 89.7429 738.015 87.6203C734.201 85.4979 729.91 84.4366 725.142 84.4366C720.375 84.4366 716.084 85.4979 712.27 87.6203C708.562 89.7429 705.596 92.8205 703.37 96.8533C701.146 100.78 700.034 105.503 700.034 111.021C700.034 116.434 701.146 121.156 703.37 125.189C705.596 129.222 708.562 132.3 712.27 134.422C716.084 136.545 720.375 137.606 725.142 137.606ZM750.093 184.408V133.785L751.682 111.18L751.047 88.5756V68.5177H769.957V184.408H750.093Z" fill="white"/>
<path d="M218.98 216.52H213.74L212.9 219H209.32L214.4 204.96H218.36L223.44 219H219.82L218.98 216.52ZM218.1 213.88L216.36 208.74L214.64 213.88H218.1ZM236.006 207.84V219H232.586V217.48C232.239 217.973 231.766 218.373 231.166 218.68C230.579 218.973 229.926 219.12 229.206 219.12C228.353 219.12 227.599 218.933 226.946 218.56C226.293 218.173 225.786 217.62 225.426 216.9C225.066 216.18 224.886 215.333 224.886 214.36V207.84H228.286V213.9C228.286 214.647 228.479 215.227 228.866 215.64C229.253 216.053 229.773 216.26 230.426 216.26C231.093 216.26 231.619 216.053 232.006 215.64C232.393 215.227 232.586 214.647 232.586 213.9V207.84H236.006ZM244.683 216.1V219H242.943C241.703 219 240.736 218.7 240.043 218.1C239.349 217.487 239.003 216.493 239.003 215.12V210.68H237.643V207.84H239.003V205.12H242.423V207.84H244.663V210.68H242.423V215.16C242.423 215.493 242.503 215.733 242.663 215.88C242.823 216.027 243.089 216.1 243.463 216.1H244.683ZM251.668 219.16C250.574 219.16 249.588 218.927 248.708 218.46C247.841 217.993 247.154 217.327 246.648 216.46C246.154 215.593 245.908 214.58 245.908 213.42C245.908 212.273 246.161 211.267 246.668 210.4C247.174 209.52 247.868 208.847 248.748 208.38C249.628 207.913 250.614 207.68 251.708 207.68C252.801 207.68 253.788 207.913 254.668 208.38C255.548 208.847 256.241 209.52 256.748 210.4C257.254 211.267 257.508 212.273 257.508 213.42C257.508 214.567 257.248 215.58 256.728 216.46C256.221 217.327 255.521 217.993 254.628 218.46C253.748 218.927 252.761 219.16 251.668 219.16ZM251.668 216.2C252.321 216.2 252.874 215.96 253.328 215.48C253.794 215 254.028 214.313 254.028 213.42C254.028 212.527 253.801 211.84 253.348 211.36C252.908 210.88 252.361 210.64 251.708 210.64C251.041 210.64 250.488 210.88 250.048 211.36C249.608 211.827 249.388 212.513 249.388 213.42C249.388 214.313 249.601 215 250.028 215.48C250.468 215.96 251.014 216.2 251.668 216.2ZM273.562 207.72C274.949 207.72 276.049 208.14 276.862 208.98C277.689 209.82 278.102 210.987 278.102 212.48V219H274.702V212.94C274.702 212.22 274.509 211.667 274.122 211.28C273.749 210.88 273.229 210.68 272.562 210.68C271.895 210.68 271.369 210.88 270.982 211.28C270.609 211.667 270.422 212.22 270.422 212.94V219H267.022V212.94C267.022 212.22 266.829 211.667 266.442 211.28C266.069 210.88 265.549 210.68 264.882 210.68C264.215 210.68 263.689 210.88 263.302 211.28C262.929 211.667 262.742 212.22 262.742 212.94V219H259.322V207.84H262.742V209.24C263.089 208.773 263.542 208.407 264.102 208.14C264.662 207.86 265.295 207.72 266.002 207.72C266.842 207.72 267.589 207.9 268.242 208.26C268.909 208.62 269.429 209.133 269.802 209.8C270.189 209.187 270.715 208.687 271.382 208.3C272.049 207.913 272.775 207.72 273.562 207.72ZM279.814 213.4C279.814 212.253 280.027 211.247 280.454 210.38C280.894 209.513 281.487 208.847 282.234 208.38C282.981 207.913 283.814 207.68 284.734 207.68C285.521 207.68 286.207 207.84 286.794 208.16C287.394 208.48 287.854 208.9 288.174 209.42V207.84H291.594V219H288.174V217.42C287.841 217.94 287.374 218.36 286.774 218.68C286.187 219 285.501 219.16 284.714 219.16C283.807 219.16 282.981 218.927 282.234 218.46C281.487 217.98 280.894 217.307 280.454 216.44C280.027 215.56 279.814 214.547 279.814 213.4ZM288.174 213.42C288.174 212.567 287.934 211.893 287.454 211.4C286.987 210.907 286.414 210.66 285.734 210.66C285.054 210.66 284.474 210.907 283.994 211.4C283.527 211.88 283.294 212.547 283.294 213.4C283.294 214.253 283.527 214.933 283.994 215.44C284.474 215.933 285.054 216.18 285.734 216.18C286.414 216.18 286.987 215.933 287.454 215.44C287.934 214.947 288.174 214.273 288.174 213.42ZM298.928 216.24C299.808 216.24 300.401 215.813 300.708 214.96H304.348C304.095 216.093 303.588 217.02 302.828 217.74C302.068 218.46 301.121 218.907 299.988 219.08V219.82C300.681 219.82 301.288 220.007 301.808 220.38C302.328 220.767 302.588 221.34 302.588 222.1C302.588 222.86 302.315 223.433 301.768 223.82C301.221 224.22 300.568 224.42 299.808 224.42H296.728V222.54H299.348C299.615 222.54 299.815 222.5 299.948 222.42C300.081 222.34 300.148 222.207 300.148 222.02C300.148 221.833 300.081 221.7 299.948 221.62C299.815 221.553 299.615 221.52 299.348 221.52H297.928V219.08C296.555 218.867 295.455 218.26 294.628 217.26C293.801 216.247 293.388 214.967 293.388 213.42C293.388 212.26 293.621 211.247 294.088 210.38C294.568 209.513 295.228 208.847 296.068 208.38C296.921 207.913 297.895 207.68 298.988 207.68C300.388 207.68 301.555 208.047 302.488 208.78C303.435 209.513 304.055 210.547 304.348 211.88H300.708C300.401 211.027 299.808 210.6 298.928 210.6C298.301 210.6 297.801 210.847 297.428 211.34C297.055 211.82 296.868 212.513 296.868 213.42C296.868 214.327 297.055 215.027 297.428 215.52C297.801 216 298.301 216.24 298.928 216.24ZM305.498 213.4C305.498 212.253 305.711 211.247 306.138 210.38C306.578 209.513 307.171 208.847 307.918 208.38C308.664 207.913 309.498 207.68 310.418 207.68C311.204 207.68 311.891 207.84 312.478 208.16C313.078 208.48 313.538 208.9 313.858 209.42V207.84H317.278V219H313.858V217.42C313.524 217.94 313.058 218.36 312.458 218.68C311.871 219 311.184 219.16 310.398 219.16C309.491 219.16 308.664 218.927 307.918 218.46C307.171 217.98 306.578 217.307 306.138 216.44C305.711 215.56 305.498 214.547 305.498 213.4ZM313.858 213.42C313.858 212.567 313.618 211.893 313.138 211.4C312.671 210.907 312.098 210.66 311.418 210.66C310.738 210.66 310.158 210.907 309.678 211.4C309.211 211.88 308.978 212.547 308.978 213.4C308.978 214.253 309.211 214.933 309.678 215.44C310.158 215.933 310.738 216.18 311.418 216.18C312.098 216.18 312.671 215.933 313.138 215.44C313.618 214.947 313.858 214.273 313.858 213.42ZM307.798 206.9C308.118 204.927 309.038 203.94 310.558 203.94C310.851 203.94 311.104 203.987 311.318 204.08C311.544 204.16 311.818 204.287 312.138 204.46C312.378 204.593 312.571 204.693 312.718 204.76C312.864 204.813 313.018 204.84 313.178 204.84C313.671 204.84 313.958 204.54 314.038 203.94H315.798C315.478 205.913 314.558 206.9 313.038 206.9C312.744 206.9 312.484 206.86 312.258 206.78C312.044 206.687 311.778 206.553 311.458 206.38C311.218 206.247 311.024 206.153 310.878 206.1C310.731 206.033 310.578 206 310.418 206C309.924 206 309.631 206.3 309.538 206.9H307.798ZM324.832 219.16C323.738 219.16 322.752 218.927 321.872 218.46C321.005 217.993 320.318 217.327 319.812 216.46C319.318 215.593 319.072 214.58 319.072 213.42C319.072 212.273 319.325 211.267 319.832 210.4C320.338 209.52 321.032 208.847 321.912 208.38C322.792 207.913 323.778 207.68 324.872 207.68C325.965 207.68 326.952 207.913 327.832 208.38C328.712 208.847 329.405 209.52 329.912 210.4C330.418 211.267 330.672 212.273 330.672 213.42C330.672 214.567 330.412 215.58 329.892 216.46C329.385 217.327 328.685 217.993 327.792 218.46C326.912 218.927 325.925 219.16 324.832 219.16ZM324.832 216.2C325.485 216.2 326.038 215.96 326.492 215.48C326.958 215 327.192 214.313 327.192 213.42C327.192 212.527 326.965 211.84 326.512 211.36C326.072 210.88 325.525 210.64 324.872 210.64C324.205 210.64 323.652 210.88 323.212 211.36C322.772 211.827 322.552 212.513 322.552 213.42C322.552 214.313 322.765 215 323.192 215.48C323.632 215.96 324.178 216.2 324.832 216.2ZM336.044 213.4C336.044 212.253 336.258 211.247 336.684 210.38C337.124 209.513 337.718 208.847 338.464 208.38C339.211 207.913 340.044 207.68 340.964 207.68C341.698 207.68 342.364 207.833 342.964 208.14C343.578 208.447 344.058 208.86 344.404 209.38V204.2H347.824V219H344.404V217.4C344.084 217.933 343.624 218.36 343.024 218.68C342.438 219 341.751 219.16 340.964 219.16C340.044 219.16 339.211 218.927 338.464 218.46C337.718 217.98 337.124 217.307 336.684 216.44C336.258 215.56 336.044 214.547 336.044 213.4ZM344.404 213.42C344.404 212.567 344.164 211.893 343.684 211.4C343.218 210.907 342.644 210.66 341.964 210.66C341.284 210.66 340.704 210.907 340.224 211.4C339.758 211.88 339.524 212.547 339.524 213.4C339.524 214.253 339.758 214.933 340.224 215.44C340.704 215.933 341.284 216.18 341.964 216.18C342.644 216.18 343.218 215.933 343.684 215.44C344.164 214.947 344.404 214.273 344.404 213.42ZM355.379 219.16C354.285 219.16 353.299 218.927 352.419 218.46C351.552 217.993 350.865 217.327 350.359 216.46C349.865 215.593 349.619 214.58 349.619 213.42C349.619 212.273 349.872 211.267 350.379 210.4C350.885 209.52 351.579 208.847 352.459 208.38C353.339 207.913 354.325 207.68 355.419 207.68C356.512 207.68 357.499 207.913 358.379 208.38C359.259 208.847 359.952 209.52 360.459 210.4C360.965 211.267 361.219 212.273 361.219 213.42C361.219 214.567 360.959 215.58 360.439 216.46C359.932 217.327 359.232 217.993 358.339 218.46C357.459 218.927 356.472 219.16 355.379 219.16ZM355.379 216.2C356.032 216.2 356.585 215.96 357.039 215.48C357.505 215 357.739 214.313 357.739 213.42C357.739 212.527 357.512 211.84 357.059 211.36C356.619 210.88 356.072 210.64 355.419 210.64C354.752 210.64 354.199 210.88 353.759 211.36C353.319 211.827 353.099 212.513 353.099 213.42C353.099 214.313 353.312 215 353.739 215.48C354.179 215.96 354.725 216.2 355.379 216.2ZM373.491 216.1V219H371.751C370.511 219 369.545 218.7 368.851 218.1C368.158 217.487 367.811 216.493 367.811 215.12V210.68H366.451V207.84H367.811V205.12H371.231V207.84H373.471V210.68H371.231V215.16C371.231 215.493 371.311 215.733 371.471 215.88C371.631 216.027 371.898 216.1 372.271 216.1H373.491ZM385.916 213.24C385.916 213.56 385.896 213.893 385.856 214.24H378.116C378.17 214.933 378.39 215.467 378.776 215.84C379.176 216.2 379.663 216.38 380.236 216.38C381.09 216.38 381.683 216.02 382.016 215.3H385.656C385.47 216.033 385.13 216.693 384.636 217.28C384.156 217.867 383.55 218.327 382.816 218.66C382.083 218.993 381.263 219.16 380.356 219.16C379.263 219.16 378.29 218.927 377.436 218.46C376.583 217.993 375.916 217.327 375.436 216.46C374.956 215.593 374.716 214.58 374.716 213.42C374.716 212.26 374.95 211.247 375.416 210.38C375.896 209.513 376.563 208.847 377.416 208.38C378.27 207.913 379.25 207.68 380.356 207.68C381.436 207.68 382.396 207.907 383.236 208.36C384.076 208.813 384.73 209.46 385.196 210.3C385.676 211.14 385.916 212.12 385.916 213.24ZM382.416 212.34C382.416 211.753 382.216 211.287 381.816 210.94C381.416 210.593 380.916 210.42 380.316 210.42C379.743 210.42 379.256 210.587 378.856 210.92C378.47 211.253 378.23 211.727 378.136 212.34H382.416ZM392.26 219.16C391.287 219.16 390.42 218.993 389.66 218.66C388.9 218.327 388.3 217.873 387.86 217.3C387.42 216.713 387.174 216.06 387.12 215.34H390.5C390.54 215.727 390.72 216.04 391.04 216.28C391.36 216.52 391.754 216.64 392.22 216.64C392.647 216.64 392.974 216.56 393.2 216.4C393.44 216.227 393.56 216.007 393.56 215.74C393.56 215.42 393.394 215.187 393.06 215.04C392.727 214.88 392.187 214.707 391.44 214.52C390.64 214.333 389.974 214.14 389.44 213.94C388.907 213.727 388.447 213.4 388.06 212.96C387.674 212.507 387.48 211.9 387.48 211.14C387.48 210.5 387.654 209.92 388 209.4C388.36 208.867 388.88 208.447 389.56 208.14C390.254 207.833 391.074 207.68 392.02 207.68C393.42 207.68 394.52 208.027 395.32 208.72C396.134 209.413 396.6 210.333 396.72 211.48H393.56C393.507 211.093 393.334 210.787 393.04 210.56C392.76 210.333 392.387 210.22 391.92 210.22C391.52 210.22 391.214 210.3 391 210.46C390.787 210.607 390.68 210.813 390.68 211.08C390.68 211.4 390.847 211.64 391.18 211.8C391.527 211.96 392.06 212.12 392.78 212.28C393.607 212.493 394.28 212.707 394.8 212.92C395.32 213.12 395.774 213.453 396.16 213.92C396.56 214.373 396.767 214.987 396.78 215.76C396.78 216.413 396.594 217 396.22 217.52C395.86 218.027 395.334 218.427 394.64 218.72C393.96 219.013 393.167 219.16 392.26 219.16ZM405.093 216.1V219H403.353C402.113 219 401.146 218.7 400.453 218.1C399.759 217.487 399.413 216.493 399.413 215.12V210.68H398.053V207.84H399.413V205.12H402.833V207.84H405.073V210.68H402.833V215.16C402.833 215.493 402.913 215.733 403.073 215.88C403.233 216.027 403.499 216.1 403.873 216.1H405.093ZM417.518 213.24C417.518 213.56 417.498 213.893 417.458 214.24H409.718C409.771 214.933 409.991 215.467 410.378 215.84C410.778 216.2 411.264 216.38 411.838 216.38C412.691 216.38 413.284 216.02 413.618 215.3H417.258C417.071 216.033 416.731 216.693 416.238 217.28C415.758 217.867 415.151 218.327 414.418 218.66C413.684 218.993 412.864 219.16 411.958 219.16C410.864 219.16 409.891 218.927 409.038 218.46C408.184 217.993 407.518 217.327 407.038 216.46C406.558 215.593 406.318 214.58 406.318 213.42C406.318 212.26 406.551 211.247 407.018 210.38C407.498 209.513 408.164 208.847 409.018 208.38C409.871 207.913 410.851 207.68 411.958 207.68C413.038 207.68 413.998 207.907 414.838 208.36C415.678 208.813 416.331 209.46 416.798 210.3C417.278 211.14 417.518 212.12 417.518 213.24ZM414.018 212.34C414.018 211.753 413.818 211.287 413.418 210.94C413.018 210.593 412.518 210.42 411.918 210.42C411.344 210.42 410.858 210.587 410.458 210.92C410.071 211.253 409.831 211.727 409.738 212.34H414.018ZM422.88 213.4C422.88 212.253 423.094 211.247 423.52 210.38C423.96 209.513 424.554 208.847 425.3 208.38C426.047 207.913 426.88 207.68 427.8 207.68C428.534 207.68 429.2 207.833 429.8 208.14C430.414 208.447 430.894 208.86 431.24 209.38V204.2H434.66V219H431.24V217.4C430.92 217.933 430.46 218.36 429.86 218.68C429.274 219 428.587 219.16 427.8 219.16C426.88 219.16 426.047 218.927 425.3 218.46C424.554 217.98 423.96 217.307 423.52 216.44C423.094 215.56 422.88 214.547 422.88 213.4ZM431.24 213.42C431.24 212.567 431 211.893 430.52 211.4C430.054 210.907 429.48 210.66 428.8 210.66C428.12 210.66 427.54 210.907 427.06 211.4C426.594 211.88 426.36 212.547 426.36 213.4C426.36 214.253 426.594 214.933 427.06 215.44C427.54 215.933 428.12 216.18 428.8 216.18C429.48 216.18 430.054 215.933 430.52 215.44C431 214.947 431.24 214.273 431.24 213.42ZM447.655 213.24C447.655 213.56 447.635 213.893 447.595 214.24H439.855C439.908 214.933 440.128 215.467 440.515 215.84C440.915 216.2 441.401 216.38 441.975 216.38C442.828 216.38 443.421 216.02 443.755 215.3H447.395C447.208 216.033 446.868 216.693 446.375 217.28C445.895 217.867 445.288 218.327 444.555 218.66C443.821 218.993 443.001 219.16 442.095 219.16C441.001 219.16 440.028 218.927 439.175 218.46C438.321 217.993 437.655 217.327 437.175 216.46C436.695 215.593 436.455 214.58 436.455 213.42C436.455 212.26 436.688 211.247 437.155 210.38C437.635 209.513 438.301 208.847 439.155 208.38C440.008 207.913 440.988 207.68 442.095 207.68C443.175 207.68 444.135 207.907 444.975 208.36C445.815 208.813 446.468 209.46 446.935 210.3C447.415 211.14 447.655 212.12 447.655 213.24ZM444.155 212.34C444.155 211.753 443.955 211.287 443.555 210.94C443.155 210.593 442.655 210.42 442.055 210.42C441.481 210.42 440.995 210.587 440.595 210.92C440.208 211.253 439.968 211.727 439.875 212.34H444.155ZM455.417 206.68C454.817 206.68 454.324 206.507 453.937 206.16C453.564 205.8 453.377 205.36 453.377 204.84C453.377 204.307 453.564 203.867 453.937 203.52C454.324 203.16 454.817 202.98 455.417 202.98C456.004 202.98 456.484 203.16 456.857 203.52C457.244 203.867 457.437 204.307 457.437 204.84C457.437 205.36 457.244 205.8 456.857 206.16C456.484 206.507 456.004 206.68 455.417 206.68ZM457.117 207.84V219H453.697V207.84H457.117ZM464.675 219.16C463.582 219.16 462.595 218.927 461.715 218.46C460.849 217.993 460.162 217.327 459.655 216.46C459.162 215.593 458.915 214.58 458.915 213.42C458.915 212.273 459.169 211.267 459.675 210.4C460.182 209.52 460.875 208.847 461.755 208.38C462.635 207.913 463.622 207.68 464.715 207.68C465.809 207.68 466.795 207.913 467.675 208.38C468.555 208.847 469.249 209.52 469.755 210.4C470.262 211.267 470.515 212.273 470.515 213.42C470.515 214.567 470.255 215.58 469.735 216.46C469.229 217.327 468.529 217.993 467.635 218.46C466.755 218.927 465.769 219.16 464.675 219.16ZM464.675 216.2C465.329 216.2 465.882 215.96 466.335 215.48C466.802 215 467.035 214.313 467.035 213.42C467.035 212.527 466.809 211.84 466.355 211.36C465.915 210.88 465.369 210.64 464.715 210.64C464.049 210.64 463.495 210.88 463.055 211.36C462.615 211.827 462.395 212.513 462.395 213.42C462.395 214.313 462.609 215 463.035 215.48C463.475 215.96 464.022 216.2 464.675 216.2ZM471.65 213.4C471.65 212.253 471.863 211.247 472.29 210.38C472.73 209.513 473.323 208.847 474.07 208.38C474.817 207.913 475.65 207.68 476.57 207.68C477.303 207.68 477.97 207.833 478.57 208.14C479.183 208.447 479.663 208.86 480.01 209.38V204.2H483.43V219H480.01V217.4C479.69 217.933 479.23 218.36 478.63 218.68C478.043 219 477.357 219.16 476.57 219.16C475.65 219.16 474.817 218.927 474.07 218.46C473.323 217.98 472.73 217.307 472.29 216.44C471.863 215.56 471.65 214.547 471.65 213.4ZM480.01 213.42C480.01 212.567 479.77 211.893 479.29 211.4C478.823 210.907 478.25 210.66 477.57 210.66C476.89 210.66 476.31 210.907 475.83 211.4C475.363 211.88 475.13 212.547 475.13 213.4C475.13 214.253 475.363 214.933 475.83 215.44C476.31 215.933 476.89 216.18 477.57 216.18C478.25 216.18 478.823 215.933 479.29 215.44C479.77 214.947 480.01 214.273 480.01 213.42ZM490.984 219.16C489.891 219.16 488.904 218.927 488.024 218.46C487.157 217.993 486.471 217.327 485.964 216.46C485.471 215.593 485.224 214.58 485.224 213.42C485.224 212.273 485.477 211.267 485.984 210.4C486.491 209.52 487.184 208.847 488.064 208.38C488.944 207.913 489.931 207.68 491.024 207.68C492.117 207.68 493.104 207.913 493.984 208.38C494.864 208.847 495.557 209.52 496.064 210.4C496.571 211.267 496.824 212.273 496.824 213.42C496.824 214.567 496.564 215.58 496.044 216.46C495.537 217.327 494.837 217.993 493.944 218.46C493.064 218.927 492.077 219.16 490.984 219.16ZM490.984 216.2C491.637 216.2 492.191 215.96 492.644 215.48C493.111 215 493.344 214.313 493.344 213.42C493.344 212.527 493.117 211.84 492.664 211.36C492.224 210.88 491.677 210.64 491.024 210.64C490.357 210.64 489.804 210.88 489.364 211.36C488.924 211.827 488.704 212.513 488.704 213.42C488.704 214.313 488.917 215 489.344 215.48C489.784 215.96 490.331 216.2 490.984 216.2ZM506.297 209.42C506.63 208.9 507.09 208.48 507.677 208.16C508.263 207.84 508.95 207.68 509.737 207.68C510.657 207.68 511.49 207.913 512.237 208.38C512.983 208.847 513.57 209.513 513.997 210.38C514.437 211.247 514.657 212.253 514.657 213.4C514.657 214.547 514.437 215.56 513.997 216.44C513.57 217.307 512.983 217.98 512.237 218.46C511.49 218.927 510.657 219.16 509.737 219.16C508.963 219.16 508.277 219 507.677 218.68C507.09 218.36 506.63 217.947 506.297 217.44V224.32H502.877V207.84H506.297V209.42ZM511.177 213.4C511.177 212.547 510.937 211.88 510.457 211.4C509.99 210.907 509.41 210.66 508.717 210.66C508.037 210.66 507.457 210.907 506.977 211.4C506.51 211.893 506.277 212.567 506.277 213.42C506.277 214.273 506.51 214.947 506.977 215.44C507.457 215.933 508.037 216.18 508.717 216.18C509.397 216.18 509.977 215.933 510.457 215.44C510.937 214.933 511.177 214.253 511.177 213.4ZM515.771 213.4C515.771 212.253 515.984 211.247 516.411 210.38C516.851 209.513 517.444 208.847 518.191 208.38C518.938 207.913 519.771 207.68 520.691 207.68C521.478 207.68 522.164 207.84 522.751 208.16C523.351 208.48 523.811 208.9 524.131 209.42V207.84H527.551V219H524.131V217.42C523.798 217.94 523.331 218.36 522.731 218.68C522.144 219 521.458 219.16 520.671 219.16C519.764 219.16 518.938 218.927 518.191 218.46C517.444 217.98 516.851 217.307 516.411 216.44C515.984 215.56 515.771 214.547 515.771 213.4ZM524.131 213.42C524.131 212.567 523.891 211.893 523.411 211.4C522.944 210.907 522.371 210.66 521.691 210.66C521.011 210.66 520.431 210.907 519.951 211.4C519.484 211.88 519.251 212.547 519.251 213.4C519.251 214.253 519.484 214.933 519.951 215.44C520.431 215.933 521.011 216.18 521.691 216.18C522.371 216.18 522.944 215.933 523.411 215.44C523.891 214.947 524.131 214.273 524.131 213.42ZM533.445 209.7C533.845 209.087 534.345 208.607 534.945 208.26C535.545 207.9 536.212 207.72 536.945 207.72V211.34H536.005C535.152 211.34 534.512 211.527 534.085 211.9C533.658 212.26 533.445 212.9 533.445 213.82V219H530.025V207.84H533.445V209.7ZM537.9 213.4C537.9 212.253 538.113 211.247 538.54 210.38C538.98 209.513 539.573 208.847 540.32 208.38C541.067 207.913 541.9 207.68 542.82 207.68C543.607 207.68 544.293 207.84 544.88 208.16C545.48 208.48 545.94 208.9 546.26 209.42V207.84H549.68V219H546.26V217.42C545.927 217.94 545.46 218.36 544.86 218.68C544.273 219 543.587 219.16 542.8 219.16C541.893 219.16 541.067 218.927 540.32 218.46C539.573 217.98 538.98 217.307 538.54 216.44C538.113 215.56 537.9 214.547 537.9 213.4ZM546.26 213.42C546.26 212.567 546.02 211.893 545.54 211.4C545.073 210.907 544.5 210.66 543.82 210.66C543.14 210.66 542.56 210.907 542.08 211.4C541.613 211.88 541.38 212.547 541.38 213.4C541.38 214.253 541.613 214.933 542.08 215.44C542.56 215.933 543.14 216.18 543.82 216.18C544.5 216.18 545.073 215.933 545.54 215.44C546.02 214.947 546.26 214.273 546.26 213.42ZM570.632 207.72C572.019 207.72 573.119 208.14 573.932 208.98C574.759 209.82 575.172 210.987 575.172 212.48V219H571.772V212.94C571.772 212.22 571.579 211.667 571.192 211.28C570.819 210.88 570.299 210.68 569.632 210.68C568.966 210.68 568.439 210.88 568.052 211.28C567.679 211.667 567.492 212.22 567.492 212.94V219H564.092V212.94C564.092 212.22 563.899 211.667 563.512 211.28C563.139 210.88 562.619 210.68 561.952 210.68C561.286 210.68 560.759 210.88 560.372 211.28C559.999 211.667 559.812 212.22 559.812 212.94V219H556.392V207.84H559.812V209.24C560.159 208.773 560.612 208.407 561.172 208.14C561.732 207.86 562.366 207.72 563.072 207.72C563.912 207.72 564.659 207.9 565.312 208.26C565.979 208.62 566.499 209.133 566.872 209.8C567.259 209.187 567.786 208.687 568.452 208.3C569.119 207.913 569.846 207.72 570.632 207.72ZM576.884 213.4C576.884 212.253 577.098 211.247 577.524 210.38C577.964 209.513 578.558 208.847 579.304 208.38C580.051 207.913 580.884 207.68 581.804 207.68C582.591 207.68 583.278 207.84 583.864 208.16C584.464 208.48 584.924 208.9 585.244 209.42V207.84H588.664V219H585.244V217.42C584.911 217.94 584.444 218.36 583.844 218.68C583.258 219 582.571 219.16 581.784 219.16C580.878 219.16 580.051 218.927 579.304 218.46C578.558 217.98 577.964 217.307 577.524 216.44C577.098 215.56 576.884 214.547 576.884 213.4ZM585.244 213.42C585.244 212.567 585.004 211.893 584.524 211.4C584.058 210.907 583.484 210.66 582.804 210.66C582.124 210.66 581.544 210.907 581.064 211.4C580.598 211.88 580.364 212.547 580.364 213.4C580.364 214.253 580.598 214.933 581.064 215.44C581.544 215.933 582.124 216.18 582.804 216.18C583.484 216.18 584.058 215.933 584.524 215.44C585.004 214.947 585.244 214.273 585.244 213.42ZM592.858 206.68C592.258 206.68 591.765 206.507 591.378 206.16C591.005 205.8 590.818 205.36 590.818 204.84C590.818 204.307 591.005 203.867 591.378 203.52C591.765 203.16 592.258 202.98 592.858 202.98C593.445 202.98 593.925 203.16 594.298 203.52C594.685 203.867 594.878 204.307 594.878 204.84C594.878 205.36 594.685 205.8 594.298 206.16C593.925 206.507 593.445 206.68 592.858 206.68ZM594.558 207.84V219H591.138V207.84H594.558ZM602.117 219.16C601.024 219.16 600.037 218.927 599.157 218.46C598.29 217.993 597.604 217.327 597.097 216.46C596.604 215.593 596.357 214.58 596.357 213.42C596.357 212.273 596.61 211.267 597.117 210.4C597.624 209.52 598.317 208.847 599.197 208.38C600.077 207.913 601.064 207.68 602.157 207.68C603.25 207.68 604.237 207.913 605.117 208.38C605.997 208.847 606.69 209.52 607.197 210.4C607.704 211.267 607.957 212.273 607.957 213.42C607.957 214.567 607.697 215.58 607.177 216.46C606.67 217.327 605.97 217.993 605.077 218.46C604.197 218.927 603.21 219.16 602.117 219.16ZM602.117 216.2C602.77 216.2 603.324 215.96 603.777 215.48C604.244 215 604.477 214.313 604.477 213.42C604.477 212.527 604.25 211.84 603.797 211.36C603.357 210.88 602.81 210.64 602.157 210.64C601.49 210.64 600.937 210.88 600.497 211.36C600.057 211.827 599.837 212.513 599.837 213.42C599.837 214.313 600.05 215 600.477 215.48C600.917 215.96 601.464 216.2 602.117 216.2ZM613.191 209.7C613.591 209.087 614.091 208.607 614.691 208.26C615.291 207.9 615.958 207.72 616.691 207.72V211.34H615.751C614.898 211.34 614.258 211.527 613.831 211.9C613.405 212.26 613.191 212.9 613.191 213.82V219H609.771V207.84H613.191V209.7ZM621.884 213.42C621.884 212.26 622.118 211.247 622.584 210.38C623.064 209.513 623.724 208.847 624.564 208.38C625.418 207.913 626.391 207.68 627.484 207.68C628.884 207.68 630.051 208.047 630.984 208.78C631.931 209.513 632.551 210.547 632.844 211.88H629.204C628.898 211.027 628.304 210.6 627.424 210.6C626.798 210.6 626.298 210.847 625.924 211.34C625.551 211.82 625.364 212.513 625.364 213.42C625.364 214.327 625.551 215.027 625.924 215.52C626.298 216 626.798 216.24 627.424 216.24C628.304 216.24 628.898 215.813 629.204 214.96H632.844C632.551 216.267 631.931 217.293 630.984 218.04C630.038 218.787 628.871 219.16 627.484 219.16C626.391 219.16 625.418 218.927 624.564 218.46C623.724 217.993 623.064 217.327 622.584 216.46C622.118 215.593 621.884 214.58 621.884 213.42ZM639.754 219.16C638.66 219.16 637.674 218.927 636.794 218.46C635.927 217.993 635.24 217.327 634.734 216.46C634.24 215.593 633.994 214.58 633.994 213.42C633.994 212.273 634.247 211.267 634.754 210.4C635.26 209.52 635.954 208.847 636.834 208.38C637.714 207.913 638.7 207.68 639.794 207.68C640.887 207.68 641.874 207.913 642.754 208.38C643.634 208.847 644.327 209.52 644.834 210.4C645.34 211.267 645.594 212.273 645.594 213.42C645.594 214.567 645.334 215.58 644.814 216.46C644.307 217.327 643.607 217.993 642.714 218.46C641.834 218.927 640.847 219.16 639.754 219.16ZM639.754 216.2C640.407 216.2 640.96 215.96 641.414 215.48C641.88 215 642.114 214.313 642.114 213.42C642.114 212.527 641.887 211.84 641.434 211.36C640.994 210.88 640.447 210.64 639.794 210.64C639.127 210.64 638.574 210.88 638.134 211.36C637.694 211.827 637.474 212.513 637.474 213.42C637.474 214.313 637.687 215 638.114 215.48C638.554 215.96 639.1 216.2 639.754 216.2ZM654.208 207.72C655.515 207.72 656.555 208.147 657.328 209C658.115 209.84 658.508 211 658.508 212.48V219H655.108V212.94C655.108 212.193 654.915 211.613 654.528 211.2C654.141 210.787 653.621 210.58 652.968 210.58C652.315 210.58 651.795 210.787 651.408 211.2C651.021 211.613 650.828 212.193 650.828 212.94V219H647.408V207.84H650.828V209.32C651.175 208.827 651.641 208.44 652.228 208.16C652.815 207.867 653.475 207.72 654.208 207.72ZM667.105 216.1V219H665.365C664.125 219 663.158 218.7 662.465 218.1C661.771 217.487 661.425 216.493 661.425 215.12V210.68H660.065V207.84H661.425V205.12H664.845V207.84H667.085V210.68H664.845V215.16C664.845 215.493 664.925 215.733 665.085 215.88C665.245 216.027 665.511 216.1 665.885 216.1H667.105ZM672.43 209.7C672.83 209.087 673.33 208.607 673.93 208.26C674.53 207.9 675.196 207.72 675.93 207.72V211.34H674.99C674.136 211.34 673.496 211.527 673.07 211.9C672.643 212.26 672.43 212.9 672.43 213.82V219H669.01V207.84H672.43V209.7ZM682.644 219.16C681.551 219.16 680.564 218.927 679.684 218.46C678.818 217.993 678.131 217.327 677.624 216.46C677.131 215.593 676.884 214.58 676.884 213.42C676.884 212.273 677.138 211.267 677.644 210.4C678.151 209.52 678.844 208.847 679.724 208.38C680.604 207.913 681.591 207.68 682.684 207.68C683.778 207.68 684.764 207.913 685.644 208.38C686.524 208.847 687.218 209.52 687.724 210.4C688.231 211.267 688.484 212.273 688.484 213.42C688.484 214.567 688.224 215.58 687.704 216.46C687.198 217.327 686.498 217.993 685.604 218.46C684.724 218.927 683.738 219.16 682.644 219.16ZM682.644 216.2C683.298 216.2 683.851 215.96 684.304 215.48C684.771 215 685.004 214.313 685.004 213.42C685.004 212.527 684.778 211.84 684.324 211.36C683.884 210.88 683.338 210.64 682.684 210.64C682.018 210.64 681.464 210.88 681.024 211.36C680.584 211.827 680.364 212.513 680.364 213.42C680.364 214.313 680.578 215 681.004 215.48C681.444 215.96 681.991 216.2 682.644 216.2ZM693.719 204.2V219H690.299V204.2H693.719ZM706.717 213.24C706.717 213.56 706.697 213.893 706.657 214.24H698.917C698.97 214.933 699.19 215.467 699.577 215.84C699.977 216.2 700.464 216.38 701.037 216.38C701.89 216.38 702.484 216.02 702.817 215.3H706.457C706.27 216.033 705.93 216.693 705.437 217.28C704.957 217.867 704.35 218.327 703.617 218.66C702.884 218.993 702.064 219.16 701.157 219.16C700.064 219.16 699.09 218.927 698.237 218.46C697.384 217.993 696.717 217.327 696.237 216.46C695.757 215.593 695.517 214.58 695.517 213.42C695.517 212.26 695.75 211.247 696.217 210.38C696.697 209.513 697.364 208.847 698.217 208.38C699.07 207.913 700.05 207.68 701.157 207.68C702.237 207.68 703.197 207.907 704.037 208.36C704.877 208.813 705.53 209.46 705.997 210.3C706.477 211.14 706.717 212.12 706.717 213.24ZM703.217 212.34C703.217 211.753 703.017 211.287 702.617 210.94C702.217 210.593 701.717 210.42 701.117 210.42C700.544 210.42 700.057 210.587 699.657 210.92C699.27 211.253 699.03 211.727 698.937 212.34H703.217ZM723.28 213.24C723.28 213.56 723.26 213.893 723.22 214.24H715.48C715.533 214.933 715.753 215.467 716.14 215.84C716.54 216.2 717.026 216.38 717.6 216.38C718.453 216.38 719.046 216.02 719.38 215.3H723.02C722.833 216.033 722.493 216.693 722 217.28C721.52 217.867 720.913 218.327 720.18 218.66C719.446 218.993 718.626 219.16 717.72 219.16C716.626 219.16 715.653 218.927 714.8 218.46C713.946 217.993 713.28 217.327 712.8 216.46C712.32 215.593 712.08 214.58 712.08 213.42C712.08 212.26 712.313 211.247 712.78 210.38C713.26 209.513 713.926 208.847 714.78 208.38C715.633 207.913 716.613 207.68 717.72 207.68C718.8 207.68 719.76 207.907 720.6 208.36C721.44 208.813 722.093 209.46 722.56 210.3C723.04 211.14 723.28 212.12 723.28 213.24ZM719.78 212.34C719.78 211.753 719.58 211.287 719.18 210.94C718.78 210.593 718.28 210.42 717.68 210.42C717.106 210.42 716.62 210.587 716.22 210.92C715.833 211.253 715.593 211.727 715.5 212.34H719.78ZM209.56 243.44C209.56 242.333 209.787 241.347 210.24 240.48C210.707 239.613 211.327 238.94 212.1 238.46C212.887 237.967 213.74 237.72 214.66 237.72C215.367 237.72 216 237.847 216.56 238.1C217.12 238.34 217.573 238.68 217.92 239.12V237.84H221.34V254.32H217.92V247.6C217.533 248.067 217.06 248.44 216.5 248.72C215.953 249 215.327 249.14 214.62 249.14C213.713 249.14 212.873 248.9 212.1 248.42C211.327 247.94 210.707 247.267 210.24 246.4C209.787 245.533 209.56 244.547 209.56 243.44ZM217.92 243.42C217.92 242.82 217.8 242.32 217.56 241.92C217.333 241.507 217.033 241.2 216.66 241C216.287 240.787 215.893 240.68 215.48 240.68C215.08 240.68 214.693 240.787 214.32 241C213.947 241.2 213.64 241.507 213.4 241.92C213.16 242.333 213.04 242.84 213.04 243.44C213.04 244.04 213.16 244.547 213.4 244.96C213.64 245.36 213.947 245.667 214.32 245.88C214.693 246.08 215.08 246.18 215.48 246.18C215.88 246.18 216.267 246.08 216.64 245.88C217.027 245.667 217.333 245.353 217.56 244.94C217.8 244.527 217.92 244.02 217.92 243.42ZM234.834 237.84V249H231.414V247.48C231.068 247.973 230.594 248.373 229.994 248.68C229.408 248.973 228.754 249.12 228.034 249.12C227.181 249.12 226.428 248.933 225.774 248.56C225.121 248.173 224.614 247.62 224.254 246.9C223.894 246.18 223.714 245.333 223.714 244.36V237.84H227.114V243.9C227.114 244.647 227.308 245.227 227.694 245.64C228.081 246.053 228.601 246.26 229.254 246.26C229.921 246.26 230.448 246.053 230.834 245.64C231.221 245.227 231.414 244.647 231.414 243.9V237.84H234.834ZM236.611 243.4C236.611 242.253 236.824 241.247 237.251 240.38C237.691 239.513 238.284 238.847 239.031 238.38C239.777 237.913 240.611 237.68 241.531 237.68C242.317 237.68 243.004 237.84 243.591 238.16C244.191 238.48 244.651 238.9 244.971 239.42V237.84H248.391V249H244.971V247.42C244.637 247.94 244.171 248.36 243.571 248.68C242.984 249 242.297 249.16 241.511 249.16C240.604 249.16 239.777 248.927 239.031 248.46C238.284 247.98 237.691 247.307 237.251 246.44C236.824 245.56 236.611 244.547 236.611 243.4ZM244.971 243.42C244.971 242.567 244.731 241.893 244.251 241.4C243.784 240.907 243.211 240.66 242.531 240.66C241.851 240.66 241.271 240.907 240.791 241.4C240.324 241.88 240.091 242.547 240.091 243.4C240.091 244.253 240.324 244.933 240.791 245.44C241.271 245.933 241.851 246.18 242.531 246.18C243.211 246.18 243.784 245.933 244.251 245.44C244.731 244.947 244.971 244.273 244.971 243.42ZM254.285 234.2V249H250.865V234.2H254.285ZM258.483 236.68C257.883 236.68 257.39 236.507 257.003 236.16C256.63 235.8 256.443 235.36 256.443 234.84C256.443 234.307 256.63 233.867 257.003 233.52C257.39 233.16 257.883 232.98 258.483 232.98C259.07 232.98 259.55 233.16 259.923 233.52C260.31 233.867 260.503 234.307 260.503 234.84C260.503 235.36 260.31 235.8 259.923 236.16C259.55 236.507 259.07 236.68 258.483 236.68ZM260.183 237.84V249H256.763V237.84H260.183ZM261.982 243.4C261.982 242.253 262.195 241.247 262.622 240.38C263.062 239.513 263.655 238.847 264.402 238.38C265.149 237.913 265.982 237.68 266.902 237.68C267.635 237.68 268.302 237.833 268.902 238.14C269.515 238.447 269.995 238.86 270.342 239.38V234.2H273.762V249H270.342V247.4C270.022 247.933 269.562 248.36 268.962 248.68C268.375 249 267.689 249.16 266.902 249.16C265.982 249.16 265.149 248.927 264.402 248.46C263.655 247.98 263.062 247.307 262.622 246.44C262.195 245.56 261.982 244.547 261.982 243.4ZM270.342 243.42C270.342 242.567 270.102 241.893 269.622 241.4C269.155 240.907 268.582 240.66 267.902 240.66C267.222 240.66 266.642 240.907 266.162 241.4C265.695 241.88 265.462 242.547 265.462 243.4C265.462 244.253 265.695 244.933 266.162 245.44C266.642 245.933 267.222 246.18 267.902 246.18C268.582 246.18 269.155 245.933 269.622 245.44C270.102 244.947 270.342 244.273 270.342 243.42ZM275.556 243.4C275.556 242.253 275.769 241.247 276.196 240.38C276.636 239.513 277.229 238.847 277.976 238.38C278.723 237.913 279.556 237.68 280.476 237.68C281.263 237.68 281.949 237.84 282.536 238.16C283.136 238.48 283.596 238.9 283.916 239.42V237.84H287.336V249H283.916V247.42C283.583 247.94 283.116 248.36 282.516 248.68C281.929 249 281.243 249.16 280.456 249.16C279.549 249.16 278.723 248.927 277.976 248.46C277.229 247.98 276.636 247.307 276.196 246.44C275.769 245.56 275.556 244.547 275.556 243.4ZM283.916 243.42C283.916 242.567 283.676 241.893 283.196 241.4C282.729 240.907 282.156 240.66 281.476 240.66C280.796 240.66 280.216 240.907 279.736 241.4C279.269 241.88 279.036 242.547 279.036 243.4C279.036 244.253 279.269 244.933 279.736 245.44C280.216 245.933 280.796 246.18 281.476 246.18C282.156 246.18 282.729 245.933 283.196 245.44C283.676 244.947 283.916 244.273 283.916 243.42ZM289.13 243.4C289.13 242.253 289.344 241.247 289.77 240.38C290.21 239.513 290.804 238.847 291.55 238.38C292.297 237.913 293.13 237.68 294.05 237.68C294.784 237.68 295.45 237.833 296.05 238.14C296.664 238.447 297.144 238.86 297.49 239.38V234.2H300.91V249H297.49V247.4C297.17 247.933 296.71 248.36 296.11 248.68C295.524 249 294.837 249.16 294.05 249.16C293.13 249.16 292.297 248.927 291.55 248.46C290.804 247.98 290.21 247.307 289.77 246.44C289.344 245.56 289.13 244.547 289.13 243.4ZM297.49 243.42C297.49 242.567 297.25 241.893 296.77 241.4C296.304 240.907 295.73 240.66 295.05 240.66C294.37 240.66 293.79 240.907 293.31 241.4C292.844 241.88 292.61 242.547 292.61 243.4C292.61 244.253 292.844 244.933 293.31 245.44C293.79 245.933 294.37 246.18 295.05 246.18C295.73 246.18 296.304 245.933 296.77 245.44C297.25 244.947 297.49 244.273 297.49 243.42ZM313.905 243.24C313.905 243.56 313.885 243.893 313.845 244.24H306.105C306.158 244.933 306.378 245.467 306.765 245.84C307.165 246.2 307.651 246.38 308.225 246.38C309.078 246.38 309.671 246.02 310.005 245.3H313.645C313.458 246.033 313.118 246.693 312.625 247.28C312.145 247.867 311.538 248.327 310.805 248.66C310.071 248.993 309.251 249.16 308.345 249.16C307.251 249.16 306.278 248.927 305.425 248.46C304.571 247.993 303.905 247.327 303.425 246.46C302.945 245.593 302.705 244.58 302.705 243.42C302.705 242.26 302.938 241.247 303.405 240.38C303.885 239.513 304.551 238.847 305.405 238.38C306.258 237.913 307.238 237.68 308.345 237.68C309.425 237.68 310.385 237.907 311.225 238.36C312.065 238.813 312.718 239.46 313.185 240.3C313.665 241.14 313.905 242.12 313.905 243.24ZM310.405 242.34C310.405 241.753 310.205 241.287 309.805 240.94C309.405 240.593 308.905 240.42 308.305 240.42C307.731 240.42 307.245 240.587 306.845 240.92C306.458 241.253 306.218 241.727 306.125 242.34H310.405ZM317.309 249.16C316.709 249.16 316.215 248.987 315.829 248.64C315.455 248.28 315.269 247.84 315.269 247.32C315.269 246.787 315.455 246.34 315.829 245.98C316.215 245.62 316.709 245.44 317.309 245.44C317.895 245.44 318.375 245.62 318.749 245.98C319.135 246.34 319.329 246.787 319.329 247.32C319.329 247.84 319.135 248.28 318.749 248.64C318.375 248.987 317.895 249.16 317.309 249.16Z" fill="white"/>
</svg>
