<svg width="784" height="217" viewBox="0 0 784 217" fill="none" xmlns="http://www.w3.org/2000/svg">
<path d="M57.2575 159.896C51.6684 163.422 46.1615 161.365 44.1066 159.896C24.7093 142.27 7.12001 122.001 0.544589 114.069C-0.441723 108.429 0.133639 104.669 0.544602 103.494C26.5175 70.3576 42.1889 56.7858 46.9834 54.1419C49.6136 53.7894 52.463 53.995 53.5588 54.1419C60.5453 55.4639 63.8329 59.8703 67.5316 65.5986C70.4906 70.1813 69.8604 76.3208 69.1755 78.8178C57.6685 90.4508 51.0931 99.528 49.0383 102.613C47.8054 108.341 49.0383 112.307 49.0383 112.747C49.0383 113.1 60.6822 127.435 66.7097 134.339C73.9427 145.267 63.4219 155.93 57.2575 159.896Z" fill="white"/>
<path d="M132.357 106.126H194.235L107.606 14.1504H49.4414L132.357 102.589V106.126Z" fill="white"/>
<path d="M132.253 112.346L52.0898 201.64H108.287H108.7L194.235 106.126H132.253V112.346Z" fill="white"/>
<path d="M268.608 155.115C260.133 155.115 252.24 153.736 244.929 150.977C237.724 148.112 231.421 144.132 226.017 139.038C220.721 133.837 216.589 127.735 213.622 120.731C210.656 113.726 209.173 106.085 209.173 97.8076C209.173 89.5297 210.656 81.8886 213.622 74.8842C216.589 67.8799 220.774 61.8307 226.177 56.7367C231.581 51.5365 237.884 47.5567 245.088 44.7976C252.293 41.9321 260.186 40.4993 268.768 40.4993C277.878 40.4993 286.195 42.0913 293.717 45.2751C301.24 48.3527 307.596 52.9692 312.788 59.1246L299.438 71.7005C295.413 67.3493 290.91 64.1125 285.93 61.9899C280.95 59.7613 275.548 58.6469 269.721 58.6469C263.894 58.6469 258.543 59.6021 253.67 61.5123C248.902 63.4227 244.717 66.1288 241.115 69.6311C237.62 73.1332 234.864 77.2721 232.851 82.0477C230.944 86.8234 229.99 92.0767 229.99 97.8076C229.99 103.538 230.944 108.792 232.851 113.567C234.864 118.343 237.62 122.482 241.115 125.984C244.717 129.486 248.902 132.192 253.67 134.103C258.543 136.013 263.894 136.968 269.721 136.968C275.548 136.968 280.95 135.907 285.93 133.784C290.91 131.556 295.413 128.213 299.438 123.755L312.788 136.491C307.596 142.54 301.24 147.156 293.717 150.34C286.195 153.524 277.826 155.115 268.608 155.115ZM365.558 154.638C356.87 154.638 349.136 152.781 342.356 149.067C335.576 145.246 330.225 140.046 326.305 133.466C322.385 126.886 320.425 119.404 320.425 111.02C320.425 102.53 322.385 95.0483 326.305 88.5746C330.225 81.9948 335.576 76.8476 342.356 73.1332C349.136 69.4188 356.87 67.5616 365.558 67.5616C374.351 67.5616 382.138 69.4188 388.918 73.1332C395.805 76.8476 401.156 81.9416 404.97 88.4153C408.89 94.889 410.85 102.424 410.85 111.02C410.85 119.404 408.89 126.886 404.97 133.466C401.156 140.046 395.805 145.246 388.918 149.067C382.138 152.781 374.351 154.638 365.558 154.638ZM365.558 137.605C370.431 137.605 374.776 136.544 378.589 134.421C382.403 132.299 385.37 129.221 387.489 125.188C389.713 121.155 390.825 116.433 390.825 111.02C390.825 105.502 389.713 100.779 387.489 96.8523C385.37 92.8195 382.403 89.7419 378.589 87.6193C374.776 85.4969 370.484 84.4356 365.717 84.4356C360.843 84.4356 356.499 85.4969 352.685 87.6193C348.977 89.7419 346.011 92.8195 343.785 96.8523C341.56 100.779 340.449 105.502 340.449 111.02C340.449 116.433 341.56 121.155 343.785 125.188C346.011 129.221 348.977 132.299 352.685 134.421C356.499 136.544 360.79 137.605 365.558 137.605ZM477.998 67.5616C484.779 67.5616 490.816 68.8881 496.114 71.5413C501.518 74.1944 505.755 78.2802 508.828 83.7988C511.9 89.2113 513.436 96.2156 513.436 104.812V153.524H493.572V107.359C493.572 99.8239 491.77 94.1992 488.168 90.4848C484.673 86.7704 479.746 84.9132 473.389 84.9132C468.727 84.9132 464.595 85.8683 460.993 87.7786C457.392 89.6888 454.583 92.5542 452.57 96.3748C450.663 100.089 449.709 104.812 449.709 110.543V153.524H429.846V68.5167H448.756V91.4399L445.42 84.4356C448.386 79.0232 452.676 74.8842 458.292 72.0188C464.013 69.0474 470.581 67.5616 477.998 67.5616ZM538.636 153.524V35.4053H558.501V153.524H538.636ZM622.714 154.638C614.027 154.638 606.293 152.781 599.512 149.067C592.732 145.246 587.381 140.046 583.461 133.466C579.541 126.886 577.581 119.404 577.581 111.02C577.581 102.53 579.541 95.0483 583.461 88.5746C587.381 81.9948 592.732 76.8476 599.512 73.1332C606.293 69.4188 614.027 67.5616 622.714 67.5616C631.508 67.5616 639.294 69.4188 646.075 73.1332C652.961 76.8476 658.312 81.9416 662.126 88.4153C666.046 94.889 668.006 102.424 668.006 111.02C668.006 119.404 666.046 126.886 662.126 133.466C658.312 140.046 652.961 145.246 646.075 149.067C639.294 152.781 631.508 154.638 622.714 154.638ZM622.714 137.605C627.588 137.605 631.932 136.544 635.746 134.421C639.56 132.299 642.526 129.221 644.645 125.188C646.871 121.155 647.982 116.433 647.982 111.02C647.982 105.502 646.871 100.779 644.645 96.8523C642.526 92.8195 639.56 89.7419 635.746 87.6193C631.932 85.4969 627.641 84.4356 622.873 84.4356C618 84.4356 613.655 85.4969 609.841 87.6193C606.134 89.7419 603.167 92.8195 600.942 96.8523C598.718 100.779 597.605 105.502 597.605 111.02C597.605 116.433 598.718 121.155 600.942 125.188C603.167 129.221 606.134 132.299 609.841 134.421C613.655 136.544 617.947 137.605 622.714 137.605ZM722.917 154.638C714.76 154.638 707.396 152.834 700.828 149.225C694.365 145.617 689.28 140.576 685.571 134.103C681.863 127.523 680.009 119.829 680.009 111.02C680.009 102.212 681.863 94.5707 685.571 88.0969C689.28 81.6232 694.365 76.5823 700.828 72.9739C707.396 69.3656 714.76 67.5616 722.917 67.5616C730.228 67.5616 736.637 69.1534 742.147 72.3372C747.762 75.4149 752.158 80.1376 755.337 86.5051C758.622 92.8727 760.263 101.045 760.263 111.02C760.263 120.89 758.569 129.062 755.178 135.535C751.894 141.903 747.444 146.679 741.829 149.863C736.214 153.046 729.91 154.638 722.917 154.638ZM725.142 137.605C729.91 137.605 734.201 136.544 738.015 134.421C741.829 132.299 744.849 129.221 747.074 125.188C749.298 121.155 750.41 116.433 750.41 111.02C750.41 105.502 749.298 100.779 747.074 96.8523C744.849 92.8195 741.829 89.7419 738.015 87.6193C734.201 85.4969 729.91 84.4356 725.142 84.4356C720.375 84.4356 716.084 85.4969 712.27 87.6193C708.562 89.7419 705.596 92.8195 703.37 96.8523C701.146 100.779 700.034 105.502 700.034 111.02C700.034 116.433 701.146 121.155 703.37 125.188C705.596 129.221 708.562 132.299 712.27 134.421C716.084 136.544 720.375 137.605 725.142 137.605ZM750.093 184.407V133.784L751.682 111.179L751.047 88.5746V68.5167H769.957V184.407H750.093Z" fill="white"/>
</svg>
